<svg width="413" height="685" viewBox="0 0 413 685" fill="none" xmlns="http://www.w3.org/2000/svg">
<path d="M47 150V146M7 136H35C37.2091 136 39 137.791 39 140V156C39 158.209 37.2091 160 35 160H7C4.79086 160 3 158.209 3 156V140C3 137.791 4.79086 136 7 136Z" stroke="#1E1E1E" stroke-width="4" stroke-linecap="round" stroke-linejoin="round"/>
<path d="M85 185L107 207L96 218V174L107 185L85 207" stroke="#1E1E1E" stroke-width="4" stroke-linecap="round" stroke-linejoin="round"/>
<path d="M50 280C50 281.061 49.5786 282.078 48.8284 282.828C48.0783 283.579 47.0609 284 46 284H10C8.93913 284 7.92172 283.579 7.17157 282.828C6.42143 282.078 6 281.061 6 280V258C6 256.939 6.42143 255.922 7.17157 255.172C7.92172 254.421 8.93913 254 10 254H18L22 248H34L38 254H46C47.0609 254 48.0783 254.421 48.8284 255.172C49.5786 255.922 50 256.939 50 258V280Z" stroke="#1E1E1E" stroke-width="4" stroke-linecap="round" stroke-linejoin="round"/>
<path d="M28 276C32.4183 276 36 272.418 36 268C36 263.582 32.4183 260 28 260C23.5817 260 20 263.582 20 268C20 272.418 23.5817 276 28 276Z" stroke="#1E1E1E" stroke-width="4" stroke-linecap="round" stroke-linejoin="round"/>
<path d="M150 287C148.409 287 146.883 287.632 145.757 288.757C144.632 289.883 144 291.409 144 293V317C144 318.591 144.632 320.117 145.757 321.243C146.883 322.368 148.409 323 150 323C151.591 323 153.117 322.368 154.243 321.243C155.368 320.117 156 318.591 156 317C156 315.409 155.368 313.883 154.243 312.757C153.117 311.632 151.591 311 150 311H126C124.409 311 122.883 311.632 121.757 312.757C120.632 313.883 120 315.409 120 317C120 318.591 120.632 320.117 121.757 321.243C122.883 322.368 124.409 323 126 323C127.591 323 129.117 322.368 130.243 321.243C131.368 320.117 132 318.591 132 317V293C132 291.409 131.368 289.883 130.243 288.757C129.117 287.632 127.591 287 126 287C124.409 287 122.883 287.632 121.757 288.757C120.632 289.883 120 291.409 120 293C120 294.591 120.632 296.117 121.757 297.243C122.883 298.368 124.409 299 126 299H150C151.591 299 153.117 298.368 154.243 297.243C155.368 296.117 156 294.591 156 293C156 291.409 155.368 289.883 154.243 288.757C153.117 287.632 151.591 287 150 287Z" stroke="#1E1E1E" stroke-width="4" stroke-linecap="round" stroke-linejoin="round"/>
<path d="M143 130C154.046 130 163 121.046 163 110C163 98.9543 154.046 90 143 90C131.954 90 123 98.9543 123 110C123 121.046 131.954 130 143 130Z" stroke="#1E1E1E" stroke-width="4" stroke-linecap="round" stroke-linejoin="round"/>
<path d="M151.48 101.52L147.24 114.24L134.52 118.48L138.76 105.76L151.48 101.52Z" stroke="#1E1E1E" stroke-width="4" stroke-linecap="round" stroke-linejoin="round"/>
<g clip-path="url(#clip0_154_579)">
<path d="M179 202V208M191 202V208M179 240V246M191 240V246M201 218H207M201 228H207M163 218H169M163 228H169M173 208H197C199.209 208 201 209.791 201 212V236C201 238.209 199.209 240 197 240H173C170.791 240 169 238.209 169 236V212C169 209.791 170.791 208 173 208ZM179 218H191V230H179V218Z" stroke="#1E1E1E" stroke-width="4" stroke-linecap="round" stroke-linejoin="round"/>
</g>
<path d="M79 370C79 373.314 70.9411 376 61 376C51.0589 376 43 373.314 43 370M79 370C79 366.686 70.9411 364 61 364C51.0589 364 43 366.686 43 370M79 370V398C79 401.32 71 404 61 404C51 404 43 401.32 43 398V370M79 384C79 387.32 71 390 61 390C51 390 43 387.32 43 384" stroke="#1E1E1E" stroke-width="4" stroke-linecap="round" stroke-linejoin="round"/>
<path d="M218 399C229.046 399 238 390.046 238 379C238 367.954 229.046 359 218 359C206.954 359 198 367.954 198 379C198 390.046 206.954 399 218 399Z" stroke="#1E1E1E" stroke-width="4" stroke-linecap="round" stroke-linejoin="round"/>
<path d="M218 385C221.314 385 224 382.314 224 379C224 375.686 221.314 373 218 373C214.686 373 212 375.686 212 379C212 382.314 214.686 385 218 385Z" stroke="#1E1E1E" stroke-width="4" stroke-linecap="round" stroke-linejoin="round"/>
<g clip-path="url(#clip1_154_579)">
<path d="M242 136L250 144M250 144L258 136M250 144V126M267.76 138.18C269.499 136.957 270.803 135.212 271.483 133.198C272.163 131.184 272.183 129.006 271.541 126.98C270.899 124.953 269.628 123.184 267.912 121.929C266.197 120.674 264.126 119.998 262 120H259.48C258.879 117.656 257.753 115.478 256.188 113.632C254.624 111.786 252.66 110.318 250.447 109.341C248.233 108.363 245.826 107.9 243.407 107.987C240.989 108.074 238.621 108.708 236.483 109.843C234.345 110.977 232.493 112.582 231.064 114.536C229.636 116.489 228.67 118.742 228.239 121.123C227.807 123.505 227.921 125.953 228.573 128.284C229.224 130.615 230.396 132.767 232 134.58" stroke="#1E1E1E" stroke-width="4" stroke-linecap="round" stroke-linejoin="round"/>
</g>
<path d="M278 282L250 310M281 296H264M286.48 290.48C288.732 288.228 289.997 285.174 289.997 281.99C289.997 278.806 288.732 275.752 286.48 273.5C284.228 271.248 281.174 269.983 277.99 269.983C274.806 269.983 271.752 271.248 269.5 273.5L256 287V304H273L286.48 290.48Z" stroke="#1E1E1E" stroke-width="4" stroke-linecap="round" stroke-linejoin="round"/>
<path d="M143 424H127C125.939 424 124.922 424.421 124.172 425.172C123.421 425.922 123 426.939 123 428V460C123 461.061 123.421 462.078 124.172 462.828C124.922 463.579 125.939 464 127 464H151C152.061 464 153.078 463.579 153.828 462.828C154.579 462.078 155 461.061 155 460V436M143 424L155 436M143 424V436H155M147 446H131M147 454H131M135 438H131" stroke="#1E1E1E" stroke-width="4" stroke-linecap="round" stroke-linejoin="round"/>
<path d="M44 503C44 504.061 43.5786 505.078 42.8284 505.828C42.0783 506.579 41.0609 507 40 507H8C6.93913 507 5.92172 506.579 5.17157 505.828C4.42143 505.078 4 504.061 4 503V475C4 473.939 4.42143 472.922 5.17157 472.172C5.92172 471.421 6.93913 471 8 471H18L22 477H40C41.0609 477 42.0783 477.421 42.8284 478.172C43.5786 478.922 44 479.939 44 481V503Z" stroke="#1E1E1E" stroke-width="4" stroke-linecap="round" stroke-linejoin="round"/>
<path d="M229 479V503M229 503C225.686 503 223 505.686 223 509C223 512.314 225.686 515 229 515C232.314 515 235 512.314 235 509M229 503C232.314 503 235 505.686 235 509M253 491C256.314 491 259 488.314 259 485C259 481.686 256.314 479 253 479C249.686 479 247 481.686 247 485C247 488.314 249.686 491 253 491ZM253 491C253 495.774 251.104 500.352 247.728 503.728C244.352 507.104 239.774 509 235 509" stroke="#1E1E1E" stroke-width="4" stroke-linecap="round" stroke-linejoin="round"/>
<path d="M116 549C116 560.046 107.046 569 96 569M116 549C116 537.954 107.046 529 96 529M116 549H76M96 569C84.9543 569 76 560.046 76 549M96 569C101.003 563.523 103.846 556.416 104 549C103.846 541.584 101.003 534.477 96 529M96 569C90.9974 563.523 88.1545 556.416 88 549C88.1545 541.584 90.9974 534.477 96 529M76 549C76 537.954 84.9543 529 96 529" stroke="#1E1E1E" stroke-width="4" stroke-linecap="round" stroke-linejoin="round"/>
<path d="M19 67V55C19 50.2261 20.8964 45.6477 24.2721 42.2721C27.6477 38.8964 32.2261 37 37 37C41.7739 37 46.3523 38.8964 49.7279 42.2721C53.1036 45.6477 55 50.2261 55 55V67M55 69C55 70.0609 54.5786 71.0783 53.8284 71.8284C53.0783 72.5786 52.0609 73 51 73H49C47.9391 73 46.9217 72.5786 46.1716 71.8284C45.4214 71.0783 45 70.0609 45 69V63C45 61.9391 45.4214 60.9217 46.1716 60.1716C46.9217 59.4214 47.9391 59 49 59H55V69ZM19 69C19 70.0609 19.4214 71.0783 20.1716 71.8284C20.9217 72.5786 21.9391 73 23 73H25C26.0609 73 27.0783 72.5786 27.8284 71.8284C28.5786 71.0783 29 70.0609 29 69V63C29 61.9391 28.5786 60.9217 27.8284 60.1716C27.0783 59.4214 26.0609 59 25 59H19V69Z" stroke="#1E1E1E" stroke-width="4" stroke-linecap="round" stroke-linejoin="round"/>
<path d="M248.68 40.22C247.658 39.198 246.446 38.3873 245.111 37.8342C243.776 37.281 242.345 36.9963 240.9 36.9963C239.455 36.9963 238.024 37.281 236.689 37.8342C235.354 38.3873 234.142 39.198 233.12 40.22L231 42.34L228.88 40.22C226.817 38.1566 224.018 36.9974 221.1 36.9974C218.182 36.9974 215.383 38.1566 213.32 40.22C211.257 42.2834 210.097 45.0819 210.097 48C210.097 50.9181 211.257 53.7166 213.32 55.78L231 73.46L248.68 55.78C249.702 54.7585 250.513 53.5456 251.066 52.2107C251.619 50.8758 251.904 49.445 251.904 48C251.904 46.555 251.619 45.1242 251.066 43.7893C250.513 42.4544 249.702 41.2415 248.68 40.22Z" stroke="#1E1E1E" stroke-width="4" stroke-linecap="round" stroke-linejoin="round"/>
<path d="M197 611H225C227.209 611 229 609.209 229 607V579C229 576.791 227.209 575 225 575H197C194.791 575 193 576.791 193 579V607C193 609.209 194.791 611 197 611ZM197 611L219 589L229 599M207 586C207 587.657 205.657 589 204 589C202.343 589 201 587.657 201 586C201 584.343 202.343 583 204 583C205.657 583 207 584.343 207 586Z" stroke="#1E1E1E" stroke-width="4" stroke-linecap="round" stroke-linejoin="round"/>
<path d="M336 543H324L320 549H312L308 543H296M336 543V555C336 556.061 335.579 557.078 334.828 557.828C334.078 558.579 333.061 559 332 559H300C298.939 559 297.922 558.579 297.172 557.828C296.421 557.078 296 556.061 296 555V543M336 543L329.1 529.22C328.769 528.554 328.258 527.993 327.626 527.601C326.993 527.208 326.264 527 325.52 527H306.48C305.736 527 305.007 527.208 304.374 527.601C303.742 527.993 303.231 528.554 302.9 529.22L296 543" stroke="#1E1E1E" stroke-width="4" stroke-linecap="round" stroke-linejoin="round"/>
<path d="M313 425V405H325V425M301 399L319 385L337 399V421C337 422.061 336.579 423.078 335.828 423.828C335.078 424.579 334.061 425 333 425H305C303.939 425 302.922 424.579 302.172 423.828C301.421 423.078 301 422.061 301 421V399Z" stroke="#1E1E1E" stroke-width="4" stroke-linecap="round" stroke-linejoin="round"/>
<path d="M323 184H305M313 216H295M315 184L303 216" stroke="#1E1E1E" stroke-width="4" stroke-linecap="round" stroke-linejoin="round"/>
<path d="M343 28.9999C343.859 30.1482 344.955 31.0983 346.213 31.7858C347.471 32.4733 348.863 32.8822 350.293 32.9846C351.723 33.087 353.159 32.8807 354.503 32.3795C355.846 31.8783 357.066 31.0941 358.08 30.0799L364.08 24.0799C365.901 22.1939 366.909 19.6679 366.887 17.0459C366.864 14.424 365.812 11.9158 363.958 10.0617C362.104 8.20766 359.596 7.15597 356.974 7.13319C354.352 7.11041 351.826 8.11835 349.94 9.93993L346.5 13.3599M351 24.9999C350.141 23.8517 349.045 22.9016 347.787 22.2141C346.528 21.5265 345.137 21.1177 343.707 21.0153C342.276 20.9128 340.841 21.1192 339.497 21.6204C338.154 22.1215 336.934 22.9058 335.92 23.9199L329.92 29.9199C328.098 31.806 327.09 34.332 327.113 36.9539C327.136 39.5759 328.188 42.084 330.042 43.9381C331.896 45.7922 334.404 46.8439 337.026 46.8667C339.648 46.8895 342.174 45.8815 344.06 44.0599L347.48 40.6399" stroke="#1E1E1E" stroke-width="4" stroke-linecap="round" stroke-linejoin="round"/>
<path d="M373 101V109M373 133V141M358.86 106.86L364.52 112.52M381.48 129.48L387.14 135.14M353 121H361M385 121H393M358.86 135.14L364.52 129.48M381.48 112.52L387.14 106.86" stroke="#1E1E1E" stroke-width="4" stroke-linecap="round" stroke-linejoin="round"/>
<path d="M389 226H397C398.061 226 399.078 226.421 399.828 227.172C400.579 227.922 401 228.939 401 230V258C401 259.061 400.579 260.078 399.828 260.828C399.078 261.579 398.061 262 397 262H389M379 254L389 244M389 244L379 234M389 244H365" stroke="#1E1E1E" stroke-width="4" stroke-linecap="round" stroke-linejoin="round"/>
<path d="M407 468C407 465.8 405.2 464 403 464H371C368.8 464 367 465.8 367 468M407 468V492C407 494.2 405.2 496 403 496H371C368.8 496 367 494.2 367 492V468M407 468L387 482L367 468" stroke="#1E1E1E" stroke-width="4" stroke-linecap="round" stroke-linejoin="round"/>
<path d="M406 632C406 646 388 658 388 658C388 658 370 646 370 632C370 627.226 371.896 622.648 375.272 619.272C378.648 615.896 383.226 614 388 614C392.774 614 397.352 615.896 400.728 619.272C404.104 622.648 406 627.226 406 632Z" stroke="#1E1E1E" stroke-width="4" stroke-linecap="round" stroke-linejoin="round"/>
<path d="M388 638C391.314 638 394 635.314 394 632C394 628.686 391.314 626 388 626C384.686 626 382 628.686 382 632C382 635.314 384.686 638 388 638Z" stroke="#1E1E1E" stroke-width="4" stroke-linecap="round" stroke-linejoin="round"/>
<path d="M8 637H44M8 625H44M8 649H44" stroke="#1E1E1E" stroke-width="4" stroke-linecap="round" stroke-linejoin="round"/>
<path d="M149 662.58C148.685 665.984 147.408 669.229 145.317 671.934C143.225 674.638 140.407 676.692 137.191 677.853C133.976 679.015 130.496 679.236 127.159 678.492C123.822 677.748 120.766 676.069 118.348 673.652C115.931 671.234 114.252 668.178 113.508 664.841C112.764 661.504 112.985 658.024 114.147 654.809C115.308 651.593 117.362 648.775 120.066 646.684C122.771 644.592 126.016 643.315 129.42 643C127.427 645.697 126.468 649.019 126.717 652.363C126.966 655.707 128.408 658.85 130.779 661.221C133.15 663.592 136.293 665.034 139.637 665.283C142.981 665.532 146.304 664.573 149 662.58Z" stroke="#1E1E1E" stroke-width="4" stroke-linecap="round" stroke-linejoin="round"/>
<path d="M292 654.8L274 644.42M265.54 649.92L283 660.02L300.46 649.92M283 680.16V660M301 668V652C300.999 651.298 300.814 650.609 300.463 650.002C300.112 649.395 299.607 648.891 299 648.54L285 640.54C284.392 640.189 283.702 640.004 283 640.004C282.298 640.004 281.608 640.189 281 640.54L267 648.54C266.393 648.891 265.888 649.395 265.537 650.002C265.186 650.609 265.001 651.298 265 652V668C265.001 668.701 265.186 669.39 265.537 669.997C265.888 670.605 266.393 671.109 267 671.46L281 679.46C281.608 679.811 282.298 679.996 283 679.996C283.702 679.996 284.392 679.811 285 679.46L299 671.46C299.607 671.109 300.112 670.605 300.463 669.997C300.814 669.39 300.999 668.701 301 668Z" stroke="#1E1E1E" stroke-width="4" stroke-linecap="round" stroke-linejoin="round"/>
<path d="M149.88 22.1001L131.5 40.4801C129.248 42.7318 126.194 43.9968 123.01 43.9968C119.826 43.9968 116.772 42.7318 114.52 40.4801C112.268 38.2284 111.003 35.1745 111.003 31.9901C111.003 28.8057 112.268 25.7518 114.52 23.5001L132.9 5.12008C134.401 3.61896 136.437 2.77563 138.56 2.77563C140.683 2.77563 142.719 3.61896 144.22 5.12008C145.721 6.62121 146.565 8.65717 146.565 10.7801C146.565 12.903 145.721 14.939 144.22 16.4401L125.82 34.8201C125.07 35.5706 124.052 35.9923 122.99 35.9923C121.929 35.9923 120.911 35.5706 120.16 34.8201C119.41 34.0695 118.988 33.0515 118.988 31.9901C118.988 30.9286 119.41 29.9106 120.16 29.1601L137.14 12.2001" stroke="#1E1E1E" stroke-width="4" stroke-linecap="round" stroke-linejoin="round"/>
<path d="M403 345L375 373M383 348C383 350.761 380.761 353 378 353C375.239 353 373 350.761 373 348C373 345.239 375.239 343 378 343C380.761 343 383 345.239 383 348ZM405 370C405 372.761 402.761 375 400 375C397.239 375 395 372.761 395 370C395 367.239 397.239 365 400 365C402.761 365 405 367.239 405 370Z" stroke="#1E1E1E" stroke-width="4" stroke-linecap="round" stroke-linejoin="round"/>
<defs>
<clipPath id="clip0_154_579">
<rect width="48" height="48" fill="white" transform="translate(161 200)"/>
</clipPath>
<clipPath id="clip1_154_579">
<rect width="48" height="48" fill="white" transform="translate(226 102)"/>
</clipPath>
</defs>
</svg>
