<svg width="412" height="676" viewBox="0 0 412 676" fill="none" xmlns="http://www.w3.org/2000/svg">
<path d="M47 132V128M7 118H35C37.2091 118 39 119.791 39 122V138C39 140.209 37.2091 142 35 142H7C4.79086 142 3 140.209 3 138V122C3 119.791 4.79086 118 7 118Z" stroke="#1E1E1E" stroke-width="4" stroke-linecap="round" stroke-linejoin="round"/>
<path d="M85 167L107 189L96 200V156L107 167L85 189" stroke="#1E1E1E" stroke-width="4" stroke-linecap="round" stroke-linejoin="round"/>
<path d="M50 262C50 263.061 49.5786 264.078 48.8284 264.828C48.0783 265.579 47.0609 266 46 266H10C8.93913 266 7.92172 265.579 7.17157 264.828C6.42143 264.078 6 263.061 6 262V240C6 238.939 6.42143 237.922 7.17157 237.172C7.92172 236.421 8.93913 236 10 236H18L22 230H34L38 236H46C47.0609 236 48.0783 236.421 48.8284 237.172C49.5786 237.922 50 238.939 50 240V262Z" stroke="#1E1E1E" stroke-width="4" stroke-linecap="round" stroke-linejoin="round"/>
<path d="M28 258C32.4183 258 36 254.418 36 250C36 245.582 32.4183 242 28 242C23.5817 242 20 245.582 20 250C20 254.418 23.5817 258 28 258Z" stroke="#1E1E1E" stroke-width="4" stroke-linecap="round" stroke-linejoin="round"/>
<path d="M150 269C148.409 269 146.883 269.632 145.757 270.757C144.632 271.883 144 273.409 144 275V299C144 300.591 144.632 302.117 145.757 303.243C146.883 304.368 148.409 305 150 305C151.591 305 153.117 304.368 154.243 303.243C155.368 302.117 156 300.591 156 299C156 297.409 155.368 295.883 154.243 294.757C153.117 293.632 151.591 293 150 293H126C124.409 293 122.883 293.632 121.757 294.757C120.632 295.883 120 297.409 120 299C120 300.591 120.632 302.117 121.757 303.243C122.883 304.368 124.409 305 126 305C127.591 305 129.117 304.368 130.243 303.243C131.368 302.117 132 300.591 132 299V275C132 273.409 131.368 271.883 130.243 270.757C129.117 269.632 127.591 269 126 269C124.409 269 122.883 269.632 121.757 270.757C120.632 271.883 120 273.409 120 275C120 276.591 120.632 278.117 121.757 279.243C122.883 280.368 124.409 281 126 281H150C151.591 281 153.117 280.368 154.243 279.243C155.368 278.117 156 276.591 156 275C156 273.409 155.368 271.883 154.243 270.757C153.117 269.632 151.591 269 150 269Z" stroke="#1E1E1E" stroke-width="4" stroke-linecap="round" stroke-linejoin="round"/>
<path d="M143 112C154.046 112 163 103.046 163 92C163 80.9543 154.046 72 143 72C131.954 72 123 80.9543 123 92C123 103.046 131.954 112 143 112Z" stroke="#1E1E1E" stroke-width="4" stroke-linecap="round" stroke-linejoin="round"/>
<path d="M151.48 83.52L147.24 96.24L134.52 100.48L138.76 87.76L151.48 83.52Z" stroke="#1E1E1E" stroke-width="4" stroke-linecap="round" stroke-linejoin="round"/>
<g clip-path="url(#clip0_154_579)">
<path d="M179 184V190M191 184V190M179 222V228M191 222V228M201 200H207M201 210H207M163 200H169M163 210H169M173 190H197C199.209 190 201 191.791 201 194V218C201 220.209 199.209 222 197 222H173C170.791 222 169 220.209 169 218V194C169 191.791 170.791 190 173 190ZM179 200H191V212H179V200Z" stroke="#1E1E1E" stroke-width="4" stroke-linecap="round" stroke-linejoin="round"/>
</g>
<path d="M79 352C79 355.314 70.9411 358 61 358C51.0589 358 43 355.314 43 352M79 352C79 348.686 70.9411 346 61 346C51.0589 346 43 348.686 43 352M79 352V380C79 383.32 71 386 61 386C51 386 43 383.32 43 380V352M79 366C79 369.32 71 372 61 372C51 372 43 369.32 43 366" stroke="#1E1E1E" stroke-width="4" stroke-linecap="round" stroke-linejoin="round"/>
<path d="M218 381C229.046 381 238 372.046 238 361C238 349.954 229.046 341 218 341C206.954 341 198 349.954 198 361C198 372.046 206.954 381 218 381Z" stroke="#1E1E1E" stroke-width="4" stroke-linecap="round" stroke-linejoin="round"/>
<path d="M218 367C221.314 367 224 364.314 224 361C224 357.686 221.314 355 218 355C214.686 355 212 357.686 212 361C212 364.314 214.686 367 218 367Z" stroke="#1E1E1E" stroke-width="4" stroke-linecap="round" stroke-linejoin="round"/>
<g clip-path="url(#clip1_154_579)">
<path d="M242 118L250 126M250 126L258 118M250 126V108M267.76 120.18C269.499 118.957 270.803 117.212 271.483 115.198C272.163 113.184 272.183 111.006 271.541 108.98C270.899 106.953 269.628 105.184 267.912 103.929C266.197 102.674 264.126 101.998 262 102H259.48C258.879 99.6556 257.753 97.4784 256.188 95.632C254.624 93.7857 252.66 92.3184 250.447 91.3406C248.233 90.3628 245.826 89.8999 243.407 89.9869C240.989 90.0739 238.621 90.7084 236.483 91.8427C234.345 92.977 232.493 94.5816 231.064 96.5355C229.636 98.4895 228.67 100.742 228.239 103.123C227.807 105.505 227.921 107.953 228.573 110.284C229.224 112.615 230.396 114.767 232 116.58" stroke="#1E1E1E" stroke-width="4" stroke-linecap="round" stroke-linejoin="round"/>
</g>
<path d="M278 264L250 292M281 278H264M286.48 272.48C288.732 270.228 289.997 267.174 289.997 263.99C289.997 260.806 288.732 257.752 286.48 255.5C284.228 253.248 281.174 251.983 277.99 251.983C274.806 251.983 271.752 253.248 269.5 255.5L256 269V286H273L286.48 272.48Z" stroke="#1E1E1E" stroke-width="4" stroke-linecap="round" stroke-linejoin="round"/>
<path d="M143 406H127C125.939 406 124.922 406.421 124.172 407.172C123.421 407.922 123 408.939 123 410V442C123 443.061 123.421 444.078 124.172 444.828C124.922 445.579 125.939 446 127 446H151C152.061 446 153.078 445.579 153.828 444.828C154.579 444.078 155 443.061 155 442V418M143 406L155 418M143 406V418H155M147 428H131M147 436H131M135 420H131" stroke="#1E1E1E" stroke-width="4" stroke-linecap="round" stroke-linejoin="round"/>
<path d="M44 485C44 486.061 43.5786 487.078 42.8284 487.828C42.0783 488.579 41.0609 489 40 489H8C6.93913 489 5.92172 488.579 5.17157 487.828C4.42143 487.078 4 486.061 4 485V457C4 455.939 4.42143 454.922 5.17157 454.172C5.92172 453.421 6.93913 453 8 453H18L22 459H40C41.0609 459 42.0783 459.421 42.8284 460.172C43.5786 460.922 44 461.939 44 463V485Z" stroke="#1E1E1E" stroke-width="4" stroke-linecap="round" stroke-linejoin="round"/>
<path d="M229 461V485M229 485C225.686 485 223 487.686 223 491C223 494.314 225.686 497 229 497C232.314 497 235 494.314 235 491M229 485C232.314 485 235 487.686 235 491M253 473C256.314 473 259 470.314 259 467C259 463.686 256.314 461 253 461C249.686 461 247 463.686 247 467C247 470.314 249.686 473 253 473ZM253 473C253 477.774 251.104 482.352 247.728 485.728C244.352 489.104 239.774 491 235 491" stroke="#1E1E1E" stroke-width="4" stroke-linecap="round" stroke-linejoin="round"/>
<path d="M116 531C116 542.046 107.046 551 96 551M116 531C116 519.954 107.046 511 96 511M116 531H76M96 551C84.9543 551 76 542.046 76 531M96 551C101.003 545.523 103.846 538.416 104 531C103.846 523.584 101.003 516.477 96 511M96 551C90.9974 545.523 88.1545 538.416 88 531C88.1545 523.584 90.9974 516.477 96 511M76 531C76 519.954 84.9543 511 96 511" stroke="#1E1E1E" stroke-width="4" stroke-linecap="round" stroke-linejoin="round"/>
<path d="M49 37V25C49 20.2261 50.8964 15.6477 54.2721 12.2721C57.6477 8.89642 62.2261 7 67 7C71.7739 7 76.3523 8.89642 79.7279 12.2721C83.1036 15.6477 85 20.2261 85 25V37M85 39C85 40.0609 84.5786 41.0783 83.8284 41.8284C83.0783 42.5786 82.0609 43 81 43H79C77.9391 43 76.9217 42.5786 76.1716 41.8284C75.4214 41.0783 75 40.0609 75 39V33C75 31.9391 75.4214 30.9217 76.1716 30.1716C76.9217 29.4214 77.9391 29 79 29H85V39ZM49 39C49 40.0609 49.4214 41.0783 50.1716 41.8284C50.9217 42.5786 51.9391 43 53 43H55C56.0609 43 57.0783 42.5786 57.8284 41.8284C58.5786 41.0783 59 40.0609 59 39V33C59 31.9391 58.5786 30.9217 57.8284 30.1716C57.0783 29.4214 56.0609 29 55 29H49V39Z" stroke="#1E1E1E" stroke-width="4" stroke-linecap="round" stroke-linejoin="round"/>
<path d="M225.68 9.21999C224.658 8.198 223.446 7.38728 222.111 6.83416C220.776 6.28103 219.345 5.99634 217.9 5.99634C216.455 5.99634 215.024 6.28103 213.689 6.83416C212.354 7.38728 211.142 8.198 210.12 9.21999L208 11.34L205.88 9.21999C203.817 7.15661 201.018 5.99741 198.1 5.99741C195.182 5.99741 192.383 7.15661 190.32 9.21999C188.257 11.2834 187.097 14.0819 187.097 17C187.097 19.9181 188.257 22.7166 190.32 24.78L208 42.46L225.68 24.78C226.702 23.7585 227.513 22.5456 228.066 21.2107C228.619 19.8758 228.904 18.445 228.904 17C228.904 15.555 228.619 14.1242 228.066 12.7893C227.513 11.4544 226.702 10.2415 225.68 9.21999Z" stroke="#1E1E1E" stroke-width="4" stroke-linecap="round" stroke-linejoin="round"/>
<path d="M188 586H216C218.209 586 220 584.209 220 582V554C220 551.791 218.209 550 216 550H188C185.791 550 184 551.791 184 554V582C184 584.209 185.791 586 188 586ZM188 586L210 564L220 574M198 561C198 562.657 196.657 564 195 564C193.343 564 192 562.657 192 561C192 559.343 193.343 558 195 558C196.657 558 198 559.343 198 561Z" stroke="#1E1E1E" stroke-width="4" stroke-linecap="round" stroke-linejoin="round"/>
<path d="M336 525H324L320 531H312L308 525H296M336 525V537C336 538.061 335.579 539.078 334.828 539.828C334.078 540.579 333.061 541 332 541H300C298.939 541 297.922 540.579 297.172 539.828C296.421 539.078 296 538.061 296 537V525M336 525L329.1 511.22C328.769 510.554 328.258 509.993 327.626 509.601C326.993 509.208 326.264 509 325.52 509H306.48C305.736 509 305.007 509.208 304.374 509.601C303.742 509.993 303.231 510.554 302.9 511.22L296 525" stroke="#1E1E1E" stroke-width="4" stroke-linecap="round" stroke-linejoin="round"/>
<path d="M313 407V387H325V407M301 381L319 367L337 381V403C337 404.061 336.579 405.078 335.828 405.828C335.078 406.579 334.061 407 333 407H305C303.939 407 302.922 406.579 302.172 405.828C301.421 405.078 301 404.061 301 403V381Z" stroke="#1E1E1E" stroke-width="4" stroke-linecap="round" stroke-linejoin="round"/>
<path d="M323 166H305M313 198H295M315 166L303 198" stroke="#1E1E1E" stroke-width="4" stroke-linecap="round" stroke-linejoin="round"/>
<path d="M317 32.9999C317.859 34.1482 318.955 35.0983 320.213 35.7858C321.471 36.4733 322.863 36.8822 324.293 36.9846C325.723 37.087 327.159 36.8807 328.503 36.3795C329.846 35.8783 331.066 35.0941 332.08 34.0799L338.08 28.0799C339.901 26.1939 340.909 23.6679 340.887 21.0459C340.864 18.424 339.812 15.9158 337.958 14.0617C336.104 12.2077 333.596 11.156 330.974 11.1332C328.352 11.1104 325.826 12.1184 323.94 13.9399L320.5 17.3599M325 28.9999C324.141 27.8517 323.045 26.9016 321.787 26.2141C320.528 25.5265 319.137 25.1177 317.707 25.0153C316.276 24.9128 314.841 25.1192 313.497 25.6204C312.154 26.1215 310.934 26.9058 309.92 27.9199L303.92 33.9199C302.098 35.806 301.09 38.332 301.113 40.9539C301.136 43.5759 302.188 46.084 304.042 47.9381C305.896 49.7922 308.404 50.8439 311.026 50.8667C313.648 50.8895 316.174 49.8815 318.06 48.0599L321.48 44.6399" stroke="#1E1E1E" stroke-width="4" stroke-linecap="round" stroke-linejoin="round"/>
<path d="M373 83V91M373 115V123M358.86 88.86L364.52 94.52M381.48 111.48L387.14 117.14M353 103H361M385 103H393M358.86 117.14L364.52 111.48M381.48 94.52L387.14 88.86" stroke="#1E1E1E" stroke-width="4" stroke-linecap="round" stroke-linejoin="round"/>
<path d="M377 243H385C386.061 243 387.078 243.421 387.828 244.172C388.579 244.922 389 245.939 389 247V275C389 276.061 388.579 277.078 387.828 277.828C387.078 278.579 386.061 279 385 279H377M367 271L377 261M377 261L367 251M377 261H353" stroke="#1E1E1E" stroke-width="4" stroke-linecap="round" stroke-linejoin="round"/>
<path d="M407 450C407 447.8 405.2 446 403 446H371C368.8 446 367 447.8 367 450M407 450V474C407 476.2 405.2 478 403 478H371C368.8 478 367 476.2 367 474V450M407 450L387 464L367 450" stroke="#1E1E1E" stroke-width="4" stroke-linecap="round" stroke-linejoin="round"/>
<path d="M406 614C406 628 388 640 388 640C388 640 370 628 370 614C370 609.226 371.896 604.648 375.272 601.272C378.648 597.896 383.226 596 388 596C392.774 596 397.352 597.896 400.728 601.272C404.104 604.648 406 609.226 406 614Z" stroke="#1E1E1E" stroke-width="4" stroke-linecap="round" stroke-linejoin="round"/>
<path d="M388 620C391.314 620 394 617.314 394 614C394 610.686 391.314 608 388 608C384.686 608 382 610.686 382 614C382 617.314 384.686 620 388 620Z" stroke="#1E1E1E" stroke-width="4" stroke-linecap="round" stroke-linejoin="round"/>
<path d="M8 619H44M8 607H44M8 631H44" stroke="#1E1E1E" stroke-width="4" stroke-linecap="round" stroke-linejoin="round"/>
<path d="M151 653.58C150.685 656.984 149.408 660.229 147.317 662.934C145.225 665.638 142.407 667.692 139.191 668.853C135.976 670.015 132.496 670.236 129.159 669.492C125.822 668.748 122.766 667.069 120.348 664.652C117.931 662.234 116.252 659.178 115.508 655.841C114.764 652.504 114.985 649.024 116.147 645.809C117.308 642.593 119.362 639.775 122.066 637.684C124.771 635.592 128.016 634.315 131.42 634C129.427 636.697 128.468 640.019 128.717 643.363C128.966 646.707 130.408 649.85 132.779 652.221C135.15 654.592 138.293 656.034 141.637 656.283C144.981 656.532 148.304 655.573 151 653.58Z" stroke="#1E1E1E" stroke-width="4" stroke-linecap="round" stroke-linejoin="round"/>
<path d="M290 622.8L272 612.42M263.54 617.92L281 628.02L298.46 617.92M281 648.16V628M299 636V620C298.999 619.298 298.814 618.609 298.463 618.002C298.112 617.395 297.607 616.891 297 616.54L283 608.54C282.392 608.189 281.702 608.004 281 608.004C280.298 608.004 279.608 608.189 279 608.54L265 616.54C264.393 616.891 263.888 617.395 263.537 618.002C263.186 618.609 263.001 619.298 263 620V636C263.001 636.701 263.186 637.39 263.537 637.997C263.888 638.605 264.393 639.109 265 639.46L279 647.46C279.608 647.811 280.298 647.996 281 647.996C281.702 647.996 282.392 647.811 283 647.46L297 639.46C297.607 639.109 298.112 638.605 298.463 637.997C298.814 637.39 298.999 636.701 299 636Z" stroke="#1E1E1E" stroke-width="4" stroke-linecap="round" stroke-linejoin="round"/>
<defs>
<clipPath id="clip0_154_579">
<rect width="48" height="48" fill="white" transform="translate(161 182)"/>
</clipPath>
<clipPath id="clip1_154_579">
<rect width="48" height="48" fill="white" transform="translate(226 84)"/>
</clipPath>
</defs>
</svg>
